# xmcd
#
# Track frame offsets: 
#        150
#        20985
#        47485
#        69980
#        98383
#        122751
#        143451
#        160046
#        184887
#        198490
#        217219
#
# Disc length: 3433 seconds
#
# Revision: 1
# Processed by: cddbd v1.5.2PL0 Copyright (c) Steve Scherf et al.
# Submitted via: ExactAudioCopy v0.99pb5
#
DISCID=970d670b
DTITLE=Plumstead Radical Club - "The Coast Is Clear" - Messin Around
DYEAR=2008
DGENRE=Jazz
TTITLE0=Palimpsest/I'll Bet You Thought I'd Never Find You
TTITLE1=River Plate Samba Orchestra/Congo (Sao Benitez mix)
TTITLE2=Colman Brothers/El Nino(Big Band mix)
TTITLE3=Plumstead Radical Club /The Coast Is Clear
TTITLE4=Grupo X /Whatever You Dream (You Can Begin) (ft Julie Dexter)
TTITLE5=Sheila Landis/Who Will Buy?
TTITLE6=The Hi Fly Orchestra/Samboogaloo
TTITLE7=South Bronx Community Youth Project/Dance Freak
TTITLE8=Mark Murphy_The Louis Van Dyke Trio/Happy Samba
TTITLE9=Nostalgia 77/Wildflower
TTITLE10=Sleepwalker /Ai No Tabi
EXTD=YEAR: 2008
EXTT0=
EXTT1=
EXTT2=
EXTT3=
EXTT4=
EXTT5=
EXTT6=
EXTT7=
EXTT8=
EXTT9=
EXTT10=
PLAYORDER=
